<mxfile host="app.diagrams.net" modified="2023-04-14T14:26:09.139Z" agent="Mozilla/5.0 (Windows NT 10.0; Win64; x64) AppleWebKit/537.36 (KHTML, like Gecko) Chrome/111.0.0.0 Safari/537.36" etag="UhP0cfn84nkOJoIcZFRV" version="21.1.5" type="device">
  <diagram name="Page-1" id="4t6cEolPa43OtKdv2_k3">
    <mxGraphModel dx="1900" dy="587" grid="1" gridSize="10" guides="1" tooltips="1" connect="1" arrows="1" fold="1" page="1" pageScale="1" pageWidth="850" pageHeight="1100" math="0" shadow="0">
      <root>
        <mxCell id="0" />
        <mxCell id="1" parent="0" />
        <mxCell id="tCyQlUQnSz2FGiwpIcaU-1" value="Food&amp;lt;&amp;lt;enum&amp;gt;&amp;gt;" style="swimlane;fontStyle=1;align=center;verticalAlign=top;childLayout=stackLayout;horizontal=1;startSize=26;horizontalStack=0;resizeParent=1;resizeParentMax=0;resizeLast=0;collapsible=1;marginBottom=0;whiteSpace=wrap;html=1;" vertex="1" parent="1">
          <mxGeometry x="-490" y="80" width="170" height="110" as="geometry" />
        </mxCell>
        <mxCell id="tCyQlUQnSz2FGiwpIcaU-2" value="apple&lt;br&gt;chesse&lt;br&gt;bread&lt;br&gt;meat" style="text;strokeColor=none;fillColor=none;align=left;verticalAlign=top;spacingLeft=4;spacingRight=4;overflow=hidden;rotatable=0;points=[[0,0.5],[1,0.5]];portConstraint=eastwest;whiteSpace=wrap;html=1;" vertex="1" parent="tCyQlUQnSz2FGiwpIcaU-1">
          <mxGeometry y="26" width="170" height="84" as="geometry" />
        </mxCell>
      </root>
    </mxGraphModel>
  </diagram>
</mxfile>
